<?xml version="1.0" encoding="iso-8859-1"?>
<!-- Uploaded to: SVG Repo, www.svgrepo.com, Generator: SVG Repo Mixer Tools -->
<svg fill="#000000" height="800px" width="800px" version="1.1" id="Layer_1" xmlns="http://www.w3.org/2000/svg" xmlns:xlink="http://www.w3.org/1999/xlink" 
	 viewBox="0 0 511.937 511.937" xml:space="preserve">
<g>
	<g>
		<g>
			<path d="M484.769,46.29c-0.137-0.205-0.324-0.35-0.478-0.538c-0.102-0.128-0.162-0.282-0.273-0.401
				c-27.23-29.466-122.308-43.793-133.06-45.321c-0.239-0.034-0.461,0.017-0.7,0c-0.495-0.034-0.99-0.051-1.493,0.009
				c-0.358,0.043-0.7,0.145-1.05,0.23c-0.307,0.077-0.623,0.085-0.922,0.196c-59.375,21.905-121.916,22.008-180.915,0.316
				c-0.179-0.085-0.367-0.119-0.546-0.188c-0.12-0.043-0.23-0.077-0.341-0.12c-0.06-0.026-0.119-0.017-0.171-0.034
				c-0.614-0.205-1.237-0.358-1.894-0.418c-0.41-0.043-0.819-0.009-1.237,0.009c-0.239,0.009-0.469-0.043-0.708,0
				c-0.154,0.017-0.393,0.051-0.58,0.077c-0.051,0.017-0.102,0.017-0.154,0.026c-13.56,1.971-105.6,16.299-132.318,45.218
				c-0.12,0.119-0.179,0.273-0.282,0.401c-0.154,0.188-0.341,0.333-0.478,0.538c-0.657,0.947-15.957,23.475-7.834,44.868
				c5.171,13.602,18.099,23.023,38.426,27.998c0.205,0.051,0.401,0.043,0.606,0.077c0.077,0.017,0.136,0.077,0.213,0.085
				l52.233,7.458v154.761h42.667c4.719,0,8.533,3.823,8.533,8.533c0,4.719-3.814,8.533-8.533,8.533h-42.667v17.067h59.733
				c4.719,0,8.533,3.823,8.533,8.533c0,4.719-3.814,8.533-8.533,8.533h-59.733v34.133c0,3.413,0.282,6.75,0.512,10.103l8.09-1.118
				c3.149-0.256,5.786-0.452,8.465-0.452c56.465,0,102.4,45.943,102.4,102.4c0,7.364-0.845,14.891-2.526,22.391l-2.398,8.448
				c9.856,2.125,20.053,3.294,30.524,3.294c10.342,0,20.412-1.126,30.14-3.191l-1.988-8.457c-1.698-7.595-2.552-15.121-2.552-22.485
				c0-56.457,45.943-102.4,102.4-102.4c2.679,0,5.316,0.196,7.953,0.393h8.661c0.188-2.97,0.452-5.914,0.452-8.926V126.802
				l52.412-7.484c0.077-0.009,0.136-0.068,0.222-0.085c0.196-0.034,0.401-0.026,0.597-0.077
				c20.326-4.975,33.263-14.396,38.426-27.998C500.726,69.765,485.426,47.237,484.769,46.29z M162.089,44.985
				c-0.017,0.367-0.051,0.742-0.077,1.118c-0.077,1.357-0.196,2.722-0.375,4.13c-0.094,0.717-0.247,1.451-0.367,2.185
				c-0.188,1.135-0.367,2.278-0.631,3.447c-0.333,1.485-0.777,3.012-1.237,4.54c-0.145,0.478-0.239,0.939-0.401,1.417
				c-0.691,2.091-1.519,4.224-2.483,6.383c-0.171,0.367-0.384,0.742-0.555,1.109c-0.836,1.792-1.749,3.593-2.799,5.419
				c-0.341,0.589-0.742,1.186-1.109,1.775c-0.981,1.613-2.022,3.226-3.183,4.855c-0.503,0.717-1.075,1.434-1.613,2.142
				c-1.161,1.519-2.389,3.046-3.712,4.582c-0.683,0.785-1.399,1.57-2.125,2.355c-1.348,1.468-2.799,2.935-4.318,4.412
				c-0.862,0.828-1.732,1.664-2.654,2.5c-1.596,1.442-3.311,2.893-5.077,4.335c-1.016,0.828-2.005,1.664-3.089,2.5
				c-1.954,1.502-4.079,3.004-6.229,4.506c-0.87,0.597-1.681,1.203-2.577,1.801l-46.199-6.605c0-0.009,0-0.026,0.009-0.043
				c0.375-1.306,0.751-2.731,1.109-4.207c0.111-0.435,0.205-0.87,0.307-1.314c0.273-1.195,0.521-2.415,0.759-3.678
				c0.085-0.452,0.171-0.887,0.247-1.348c0.282-1.673,0.529-3.396,0.717-5.154c0.034-0.299,0.043-0.597,0.068-0.888
				c0.137-1.493,0.222-2.995,0.265-4.523c0.009-0.538,0.017-1.075,0.017-1.613c0-1.502-0.068-3.004-0.188-4.514
				c-0.026-0.367-0.034-0.725-0.068-1.092c-0.188-1.818-0.486-3.618-0.887-5.41c-0.102-0.444-0.239-0.879-0.35-1.323
				c-0.358-1.391-0.802-2.756-1.314-4.104c-0.196-0.503-0.375-0.998-0.597-1.493c-0.742-1.715-1.579-3.396-2.628-5.001
				c-1.69-2.569-3.678-4.821-5.956-6.758h-0.009c-2.27-1.929-4.847-3.541-7.714-4.838c-0.009-0.009-0.017-0.017-0.026-0.017
				c27.042-14.251,75.819-24.44,101.521-28.604c0.853,1.971,1.818,3.985,2.884,6.042c1.357,4.531,2.475,9.992,2.679,16.188
				c0,0.043,0,0.094,0.009,0.137C162.174,41.844,162.157,43.397,162.089,44.985z M264.412,469.271h-17.067
				c-4.71,0-8.533-3.814-8.533-8.533c0-4.71,3.823-8.533,8.533-8.533h17.067c4.719,0,8.533,3.823,8.533,8.533
				C272.946,465.456,269.131,469.271,264.412,469.271z M319.922,226.591l-7.757,7.578c-16.666,16.247-33.894,33.05-48.521,51.328
				l-1.092,1.374c-1.621,2.022-4.079,3.2-6.673,3.2c-2.586,0-5.043-1.178-6.665-3.2l-1.092-1.374
				c-14.635-18.278-31.863-35.081-48.521-51.328l-7.757-7.578c-10.633-10.428-14.985-25.463-11.657-40.218
				c3.541-15.667,15.932-28.109,31.573-31.693c13.005-2.978,26.317-0.017,36.557,8.141c2.876,2.295,5.41,4.898,7.561,7.757
				c2.159-2.859,4.693-5.461,7.569-7.757c10.231-8.158,23.543-11.119,36.548-8.141c15.642,3.584,28.041,16.026,31.573,31.693
				C334.906,201.128,330.546,216.163,319.922,226.591z M304.118,52.912c-0.333,0.23-0.666,0.461-0.998,0.683
				c-1.118,0.751-2.278,1.459-3.439,2.167c-0.759,0.461-1.527,0.913-2.304,1.348c-0.905,0.512-1.818,1.007-2.748,1.493
				c-1.084,0.563-2.193,1.109-3.319,1.63c-0.734,0.341-1.468,0.691-2.219,1.015c-1.348,0.58-2.722,1.126-4.105,1.647
				c-0.623,0.23-1.246,0.478-1.877,0.691c-1.527,0.538-3.089,1.007-4.659,1.451c-0.572,0.162-1.135,0.341-1.707,0.486
				c-1.647,0.435-3.337,0.785-5.035,1.118c-0.555,0.102-1.101,0.239-1.664,0.341c-1.741,0.299-3.533,0.512-5.325,0.7
				c-0.555,0.06-1.092,0.162-1.655,0.205c-2.355,0.205-4.745,0.316-7.185,0.316c-2.449,0-4.855-0.111-7.228-0.316
				c-0.188-0.017-0.358-0.043-0.546-0.068c-20.966-1.963-38.562-11.699-51.891-23.91c-0.265-0.239-0.529-0.469-0.785-0.708
				c-0.947-0.888-1.843-1.792-2.739-2.697c-0.563-0.572-1.152-1.135-1.698-1.715c-0.154-0.154-0.282-0.316-0.435-0.469
				c-4.634-4.975-8.55-10.112-11.733-15.036c-0.077-0.111-0.145-0.222-0.213-0.333c50.739,14.814,103.441,14.814,154.445,0
				C326.492,33.132,316.764,44.242,304.118,52.912z M449.168,51.419c-0.009,0.009-0.017,0.017-0.026,0.026
				c-2.278,1.937-4.267,4.181-5.939,6.741c-1.05,1.604-1.894,3.285-2.637,5.001c-0.213,0.495-0.401,0.99-0.597,1.493
				c-0.512,1.348-0.947,2.714-1.314,4.104c-0.111,0.444-0.247,0.879-0.35,1.323c-0.401,1.792-0.7,3.593-0.879,5.41
				c-0.043,0.367-0.043,0.725-0.077,1.092c-0.119,1.51-0.179,3.012-0.179,4.514c0,0.538,0,1.075,0.017,1.613
				c0.034,1.527,0.12,3.029,0.256,4.523c0.026,0.29,0.043,0.589,0.068,0.888c0.188,1.758,0.435,3.482,0.717,5.154
				c0.077,0.461,0.171,0.896,0.256,1.348c0.23,1.263,0.486,2.483,0.751,3.678c0.102,0.444,0.205,0.879,0.307,1.314
				c0.358,1.476,0.734,2.901,1.109,4.207c0.009,0.017,0.009,0.034,0.017,0.043l-46.165,6.596c-0.956-0.631-1.852-1.271-2.773-1.911
				c-1.988-1.382-3.942-2.765-5.76-4.164c-1.126-0.862-2.193-1.732-3.251-2.594c-1.801-1.468-3.541-2.935-5.154-4.403
				c-0.853-0.776-1.681-1.544-2.483-2.313c-1.673-1.613-3.26-3.226-4.736-4.83c-0.572-0.631-1.161-1.254-1.707-1.877
				c-1.579-1.809-3.038-3.618-4.378-5.41c-0.324-0.427-0.666-0.853-0.973-1.28c-1.502-2.082-2.859-4.156-4.07-6.212
				c-0.085-0.137-0.188-0.282-0.273-0.427c-3.985-6.861-6.434-13.508-7.799-19.746c0-0.017,0-0.034-0.009-0.06
				c-0.418-1.92-0.708-3.789-0.93-5.623c-0.119-0.99-0.179-1.946-0.247-2.91c-0.06-0.802-0.128-1.604-0.162-2.389
				c-0.043-1.468-0.034-2.918,0.017-4.326c0.009-0.179,0.009-0.358,0.017-0.538c0.29-6.315,1.519-11.887,2.987-16.495
				c0.87-1.715,1.638-3.388,2.364-5.035c25.651,4.139,74.607,14.336,101.717,28.629C454.031,47.869,451.446,49.49,449.168,51.419z"
				/>
			<path d="M127.882,392.473c-2.244,0-4.446,0.179-6.656,0.341l-7.791,1.084c9.754,51.507,46.805,93.372,95.514,110.097l2.27-7.996
				c1.289-5.803,1.997-12.083,1.997-18.193C213.216,430.754,174.935,392.473,127.882,392.473z"/>
			<path d="M296.183,171.315c-8.013-1.843-15.872-0.111-22.101,4.855c-6.144,4.89-9.668,12.194-9.668,20.036
				c0,4.71-3.814,8.533-8.533,8.533c-4.71,0-8.533-3.823-8.533-8.533c0-7.842-3.516-15.147-9.66-20.036
				c-4.608-3.669-10.103-5.572-15.889-5.572c-2.039,0-4.122,0.239-6.212,0.717c-9.148,2.099-16.674,9.66-18.748,18.825
				c-2.048,9.079,0.486,17.92,6.955,24.269l7.723,7.535c15.002,14.626,30.447,29.696,44.365,46.131
				c13.918-16.435,29.372-31.505,44.373-46.131l7.714-7.535c6.477-6.349,9.011-15.189,6.955-24.269
				C312.857,180.974,305.322,173.414,296.183,171.315z"/>
			<path d="M383.882,392.473c-47.053,0-85.333,38.281-85.333,85.333c0,6.11,0.708,12.39,2.116,18.671l1.8,7.646
				c49.212-16.751,86.554-59.17,96.026-111.283h-7.313C388.328,392.652,386.127,392.473,383.882,392.473z"/>
		</g>
	</g>
</g>
</svg>