<?xml version="1.0" ?>
<!-- Uploaded to: SVG Repo, www.svgrepo.com, Generator: SVG Repo Mixer Tools -->
<svg width="800px" height="800px" viewBox="0 0 960 960" version="1.1" xml:space="preserve" xmlns="http://www.w3.org/2000/svg" xmlns:xlink="http://www.w3.org/1999/xlink">
<style type="text/css">
	.st0{display:none;}
	.st1{display:inline;opacity:0.93;}
	.st2{display:inline;fill:none;stroke:#000000;stroke-width:15;stroke-linecap:round;stroke-linejoin:round;stroke-miterlimit:10;}
	.st3{display:inline;}
	.st4{fill:none;stroke:#000000;stroke-width:15;stroke-linecap:round;stroke-linejoin:round;stroke-miterlimit:10;}
	.st5{display:inline;fill:none;stroke:#1A1D3F;stroke-width:15;stroke-linecap:round;stroke-linejoin:round;stroke-miterlimit:10;}
	.st6{fill:#DDEDE7;}
	.st7{fill:#1A1D3F;}
	.st8{fill:#E9B44D;}
	.st9{fill:#ED644E;}
	.st10{fill:#494EDF;}
	.st11{fill:#3DC5A1;}
	.st12{fill:#F6CEC1;}
	.st13{fill:none;}
	.st14{fill:none;stroke:#1A1D3F;stroke-width:15;stroke-linecap:round;stroke-linejoin:round;stroke-miterlimit:10;}
	.st15{display:inline;fill:#E9B44D;}
	.st16{fill:#222222;}
	.st17{display:inline;fill:#222222;}
</style>
<g class="st0" id="guide"/>
<g class="st0" id="sketch"/>
<g class="st0" id="stroke">
<path class="st2" d="M639,508.6c-132.5-1.9-212.9,4.5-405.8,4.5c-0.6-10.9,0.4-18.4-0.2-29.3c118.1-3.1,287.7-4.9,405.8-8.1   C639.7,489,641.6,497.4,639,508.6z"/>
<path class="st2" d="M608.8,475.7c0-106-17.7-147.4,14.5-211.2c11.3-22.4,31.7-39.2,54.8-48.4c9.5-3.8,19.9-3.6,26.9-11.3   c10.2-11.1,18.8-22.1,31.3-31c4.5-3.2,10.1-6.2,15.2-4.3c5.9,2.2,7.7,9.6,8.7,15.8c1.5,9.7,0.6,26.5,8.3,32.9   c8.6,7.2,21.9,11,31.3,17.8c20.6,14.9,38.2,34.1,51.4,55.7c14.3,23.3,24,52.6,13.1,77.6c-6.5,14.7-20,26.2-35.5,30.1   c-14.6,3.7-32.4,3.8-48-8.8c-9.7-7.8-19-23.8-33.9-19.9c-10.5,2.8-11.3,16.2-12.2,27c-9.1,107.8-4.3,168.1,22.8,279.6"/>
<path class="st2" d="M260.4,483.1c-7.3-33.5-37.4-44.6-64.2-41.6c-32.6,3.7-46.3,20-61.2,35.9s-24.7,35.8-33.1,56   c-3.2,7.7-6.3,15.7-12.3,21.4s-15.9,8.4-22.7,3.7c-1.2,25.5,18.3,50.3,43.4,55.2c25,4.9,53.3-15.4,58.9-35.9   c3.8-14.1,9.6-29.6,22.7-36.1c13.6-6.7,27.3,3.8,35.6,16.5c28.3,42.9,11.2,96.7,3.3,143.4"/>
<path class="st2" d="M299.6,725.1c10.8-44.9,21.2-101.8,49.7-120.2c16.4-10.5,39.5-14.8,58.9-16.8c34.2-3.5,171.8-8.9,205.8,2.1   c29.5,9.5,49.4,77.6,72,118"/>
<path class="st2" d="M760.3,186.3c25.5,6.4,47.9,17,63,27.8c-5.7,8.6-12.1,17.1-18.4,25.7"/>
<path class="st2" d="M572.5,476.6c-3-45.4-7.7-149.2,8.2-196.2c28.2-83.2,90.1-104.2,146.8-99.6"/>
<path class="st2" d="M696.6,275c1.2,8.5,9.9,15.2,18.4,14.2c8.5-1,15.5-9.5,14.7-18.1C727.7,249.2,693.5,253,696.6,275z"/>
<path class="st2" d="M832.8,670c-7.2-9-13-19.8-20.2-28.7c-154.5,123.9-493.9,144.5-656.5,16.3c-4.2,6-14.4,14-18.5,20   c67.5,67.6,157.8,85.5,242,97C541.8,796.7,700.1,766,832.8,670z"/>
</g>
<g id="outline">
<path d="M815.2,238.4c4.9-6.6,9.9-13.4,14.4-20.2c2.2-3.4,1.4-7.9-1.9-10.2c-16.1-11.5-38-21.4-60.8-27.7   c-1.3-5.9-4.3-14.6-12.8-17.8c-9.8-3.7-19.1,3-22.2,5.2c-2.5,1.7-4.8,3.6-7,5.4c-43.8-2.8-118.5,8-151.3,104.9   c-15.2,44.9-12.5,136.6-9.1,191.9c-41.3,0.8-85.5,1.6-128.8,2.3c-58,1-117.5,2-169.6,3.2c-10.4-32.9-42.3-44.6-70.7-41.4   c-33.8,3.8-49,20.2-63.7,36l-2.1,2.2c-16.6,17.7-26.7,39.4-34.5,58.2l-0.4,1c-2.9,6.9-5.6,13.5-10.2,17.9   c-3.5,3.4-9.6,5.4-13.3,2.9c-2.2-1.5-5.1-1.7-7.6-0.5c-2.4,1.2-4,3.6-4.2,6.4c-1.4,29.1,20.8,57.3,49.4,62.9   c3.1,0.6,6.2,0.9,9.2,0.9c26.7,0,52.6-21.2,58.4-42.2c3.4-12.6,8.4-26.2,18.8-31.4c12.1-6,23.8,10.5,26,13.9   c22.3,33.8,14.1,75.7,6.2,116.2c-0.8,4.1-1.6,8.2-2.4,12.3c-24-11.2-45.6-24.2-64.4-39c-1.6-1.3-3.7-1.8-5.8-1.5   c-2,0.3-3.9,1.4-5.1,3.1c-1.7,2.4-5.1,5.7-8.3,8.9c-3.8,3.7-7.7,7.5-10.2,11.1c-2.1,3-1.7,7,0.9,9.6c69.9,70,163.7,87.9,246.3,99.1   c33.7,4.6,66.8,6.9,99.4,6.9c133.4,0,256.1-38.3,359.2-112.8c1.7-1.2,2.8-3,3-5.1c0.3-2-0.3-4.1-1.6-5.7c-3.4-4.2-6.4-8.9-9.7-13.8   c-3.3-5-6.7-10.2-10.5-14.9c-1.2-1.6-3.1-2.6-5-2.8c-2-0.2-4,0.4-5.5,1.6c-13.6,10.9-28.8,21.1-45.4,30.5   c-24.8-104.2-29.1-163.4-20.3-267.7l0.1-0.7c0.8-10,1.9-18.4,6.6-19.6c6.4-1.7,11.6,3,19.3,10.9c2.6,2.6,5.2,5.4,8,7.6   c14.8,11.9,33.7,15.5,54.5,10.2c17.7-4.5,33.3-17.6,40.6-34.4c10.3-23.5,5.5-53.5-13.6-84.5C846.3,269.2,831.7,252.3,815.2,238.4z    M812.9,216.1c-3.1,4.4-6.3,8.8-9.6,13.2c-4.7-3.2-9.9-5.8-15-8.2c-5.7-2.8-11.1-5.4-15-8.6c-2.8-2.4-3.9-9.7-4.5-16   C785,201.4,800.4,208.3,812.9,216.1z M587.9,282.8c12.4-36.6,32.4-63,59.3-78.6c18.3-10.6,39.4-16.1,63-16.4   c-1.7,1.9-3.3,3.7-5,5.6c-1.9,2.1-3.8,4.3-5.8,6.4c-3.2,3.6-7.9,4.7-13.8,6.3c-3.3,0.8-6.8,1.7-10.3,3.1   c-26.2,10.4-47.1,28.9-58.7,52c-23.6,46.7-21.4,82-18.2,135.6c1.3,20.8,2.7,44.2,2.9,72.4c-7.1,0.2-14.3,0.3-21.6,0.5   C576.8,423.5,573,326.7,587.9,282.8z M260.5,490.6C260.5,490.6,260.5,490.6,260.5,490.6c53.5-1.3,115.4-2.3,175.5-3.4   c67.9-1.2,138.1-2.4,195.9-3.9c0,0.4,0.1,0.9,0.1,1.3c0.6,6.2,1.1,11.2,0.6,16.3c-65.2-0.8-118.2,0.4-179.2,1.8   c-57.8,1.3-123.1,2.8-212.9,2.8c0-2.4,0-4.6,0.1-7c0.1-2.4,0.1-4.9,0.1-7.5C247.2,490.9,253.8,490.8,260.5,490.6z M761.8,683.3   c17.9-9.6,34.5-20.1,49.3-31.4c1.8,2.5,3.5,5.1,5.3,7.9c1.9,2.8,3.8,5.7,5.8,8.6c-124,87.2-276.5,121.3-441.6,98.8   c-78.1-10.6-166.6-27.3-232.7-90c1.3-1.4,2.8-2.8,4.2-4.2c1.7-1.7,3.5-3.4,5.1-5.1c20.6,15.4,44.1,28.8,70,40.2   c0.4,0.2,0.9,0.5,1.4,0.6c64.8,28.1,144.6,43.3,231.1,43.3c9.2,0,18.5-0.2,27.9-0.5c71-2.6,139.7-15.3,199.8-36   c0.7-0.1,1.4-0.4,2-0.7c25.3-8.8,49-19.1,70.7-30.6C760.7,684,761.3,683.7,761.8,683.3z M308.6,719.7c0.6-2.6,1.2-5.2,1.8-7.9   c9.4-40.2,20-85.8,42.9-100.6c12.2-7.8,30.9-13.1,55.6-15.7c37.2-3.9,170.8-8.5,202.7,1.8c17.6,5.7,33.6,41.4,47.7,72.9   c5.1,11.4,10.4,23.2,15.8,33.7c-56.9,18.7-121.4,30.2-188.1,32.7C423.2,738.9,362.6,733,308.6,719.7z M857.5,366.2   c-5.5,12.6-17.2,22.5-30.5,25.8c-16.3,4.1-30.3,1.6-41.5-7.4c-2.1-1.7-4.3-4-6.7-6.4c-7.8-8-18.5-19-33.8-14.9   c-15.3,4-16.8,21.4-17.7,32.9l-0.1,0.7c-9,107.4-4.4,167.8,21.6,276.3c-18.4,9.5-38.2,18.1-59.3,25.6   c-5.5-10.5-10.8-22.4-16.5-34.9c-16.9-37.7-32.9-73.3-56.8-81c-35.9-11.6-176.2-5.8-208.9-2.4c-27.5,2.8-47.8,8.7-62.2,18   c-28,18.1-39.4,66.8-49.4,109.8c-0.6,2.5-1.2,5-1.8,7.5c-19.2-5.3-37.5-11.6-54.8-18.8c0.9-5.1,1.9-10.3,3-15.7   c8.1-41.4,17.2-88.4-8.5-127.3c-12.7-19.3-30.1-26.6-45.2-19.1c-15.8,7.8-22.3,25-26.6,40.8c-4.6,16.9-29.2,34.6-50.3,30.5   c-18.1-3.5-33.1-19.8-36.6-37.9c7.3,0,14.6-3.4,19.7-8.2c6.9-6.6,10.5-15.3,13.7-23l0.4-0.9c7.3-17.6,16.7-37.7,31.6-53.7l2.1-2.2   c14-15.1,26.1-28.1,54.4-31.3c19.4-2.2,43.6,3.9,53.2,26.9c-5.9,0.1-11.8,0.3-17.5,0.4c-2,0.1-4,0.9-5.3,2.4   c-1.4,1.5-2.1,3.5-2,5.5c0.3,5.2,0.2,9.5,0.1,14c-0.1,4.7-0.2,9.5,0.1,15.2c0.2,4,3.5,7.1,7.5,7.1c93.8,0,161.1-1.5,220.5-2.8   c62.9-1.4,117.2-2.6,185.1-1.7c0,0,0.1,0,0.1,0c3.5,0,6.5-2.4,7.3-5.8c2.3-9.9,1.5-17.8,0.6-27c-0.2-2.6-0.5-5.2-0.7-8.1   c-0.3-4-3.7-7.1-7.7-7c-7.2,0.2-14.7,0.4-22.3,0.6c-0.2-28.5-1.6-52-2.9-73c-3.2-52.9-5.1-84.8,16.6-127.9   c10-19.8,28.1-35.8,50.9-44.8c2.6-1.1,5.5-1.8,8.5-2.5c7-1.8,14.9-3.8,21.2-10.7c2-2.2,4-4.4,5.9-6.6c7.6-8.6,14.9-16.7,24.2-23.4   c5.4-3.8,7.5-3.6,8.2-3.4c1.1,0.4,2.8,2.5,3.9,9.9c0.3,2,0.5,4.6,0.8,7.4c0.9,10.3,1.9,23.2,10.2,30.1c5.3,4.4,11.8,7.6,18.1,10.6   c5.1,2.4,9.8,4.7,13.7,7.5c19.5,14.1,36.6,32.6,49.4,53.5C854.4,311.1,868.6,340.8,857.5,366.2z M723.7,251.1   c-8.3-3.7-18.7-2.4-25.9,3c-6.7,5.1-9.9,13.1-8.6,21.9c0,0,0,0,0,0c1.6,11.6,12.6,20.8,24.2,20.8c0.8,0,1.7,0,2.5-0.1   c12.5-1.4,22.4-13.7,21.3-26.2C736.3,261.6,731.4,254.5,723.7,251.1z M714.2,281.7c-4.5,0.5-9.5-3.4-10.1-7.8   c-0.5-3.4,0.5-6.1,2.8-7.9c2.9-2.2,7.4-2.7,10.8-1.2c2.7,1.2,4.3,3.6,4.6,7C722.6,276.3,718.6,281.2,714.2,281.7z"/>
</g>
<g class="st0" id="flat">
<g class="st3">
<g>
<g>
<g>
<g>
<g>
<g>
<g>
<g>
<path class="st9" d="M760.3,186.3l-32.8-5.5c-56.7-4.6-118.6,16.4-146.8,99.6c-15.9,47-11.2,153.9-8.2,199.2l36.2,0.1            l196.1-240c6.3-8.5,12.8-17.1,18.4-25.7C808.2,203.3,785.8,192.7,760.3,186.3z"/>
</g>
</g>
</g>
</g>
</g>
</g>
</g>
</g>
<g>
<g>
<g>
<g>
<g>
<g>
<g>
<g>
<path class="st8" d="M851.3,291.7C838,270,820.4,250.9,799.9,236c-9.4-6.8-22.8-10.6-31.3-17.8            c-7.7-6.4-6.8-23.3-8.3-32.9c-1-6.2-2.8-13.6-8.7-15.8c-5.1-1.9-10.7,1.1-15.2,4.3c-12.5,8.9-21.1,19.9-31.3,31            c-7,7.7-17.4,7.5-26.9,11.3c-23.1,9.2-43.5,26-54.8,48.4c-32.2,63.8-14.5,109.3-14.5,215.2l-348.4,7.4            c-7.3-33.5-37.4-48.6-64.2-45.6c-32.6,3.7-46.3,20-61.2,35.9s-24.7,35.8-33.1,56c-3.2,7.7-6.3,15.7-12.3,21.4            c-6,5.7-15.9,8.4-22.7,3.7c-1.2,25.5,18.3,50.3,43.4,55.2c25,4.9,53.3-15.4,58.9-35.9c3.8-14.1,9.6-29.6,22.7-36.1            c13.6-6.7,27.3,3.8,35.6,16.5c28.3,42.9,11.2,96.7,3.3,143.4c18.8,24,41.8,31.3,68.7,23.5            c10.8-44.9,21.2-101.8,49.7-120.2c16.4-10.6,39.5-14.8,58.9-16.8c34.2-3.5,171.8-8.9,205.8,2.1c29.6,9.5,49.4,77.6,72,118            c25.7-2.3,49.6-12.3,71.5-30.9c-27.1-111.5-31.9-171.8-22.8-279.6c0.9-10.8,1.8-24.2,12.2-27            c14.9-3.9,24.2,12.1,33.9,19.9c15.6,12.5,33.4,12.5,48,8.8c15.6-3.9,29.1-15.4,35.5-30.1            C875.3,344.3,865.5,315,851.3,291.7z"/>
</g>
</g>
</g>
</g>
</g>
</g>
</g>
</g>
<g>
<g>
<g>
<g>
<g>
<g>
<g>
<g>
<path class="st9" d="M639,508.6c-132.5-1.9-212.9,4.5-405.8,4.5c-0.6-10.9,0.4-18.4-0.2-29.3            c118.1-3.1,287.7-4.9,405.8-8.1C639.7,489,638.8,497.8,639,508.6z"/>
</g>
</g>
</g>
</g>
</g>
</g>
</g>
</g>
<g>
<g>
<g>
<g>
<g>
<g>
<g>
<g>
<path class="st7" d="M696.6,275c1.2,8.5,9.9,15.2,18.4,14.2c8.5-1,15.5-9.5,14.7-18.1C727.7,249.2,693.5,253,696.6,275z"/>
</g>
</g>
</g>
</g>
</g>
</g>
</g>
</g>
<g>
<g>
<g>
<g>
<g>
<g>
<g>
<g>
<path class="st9" d="M832.8,670c-7.2-9-13-19.8-20.2-28.7c-154.5,123.9-493.9,144.5-656.5,16.3c-4.2,6-14.4,14-18.5,20            c67.5,67.6,157.8,85.5,242,97C541.8,796.7,700.1,766,832.8,670z"/>
</g>
</g>
</g>
</g>
</g>
</g>
</g>
</g>
<g>
<g>
<g>
<g>
<g>
<g>
<g>
<g>
<path class="st7" d="M773.2,390.7c-1.5,0-3.1-0.5-4.4-1.4c-3.3-2.4-4.1-7.1-1.6-10.5c25.8-35.3,57.5-59.6,85.2-78.7            c3.4-2.4,8.1-1.5,10.4,1.9s1.5,8.1-1.9,10.4c-47.4,32.8-67.9,56.4-81.6,75.2C777.8,389.7,775.5,390.7,773.2,390.7z"/>
</g>
</g>
</g>
</g>
</g>
</g>
</g>
</g>
<g>
<g>
<g>
<g>
<g>
<g>
<g>
<g>
<path class="st7" d="M238.2,490.9c-4,0-7.4-3.2-7.5-7.3c-0.1-4.1,3.2-7.6,7.3-7.7c63.3-1.7,133-2.8,200.4-3.8            c67.3-1.1,137-2.1,200.2-3.8c4.1-0.1,7.6,3.2,7.7,7.3c0.1,4.1-3.2,7.6-7.3,7.7c-63.3,1.7-133,2.8-200.4,3.8            c-67.3,1.1-137,2.1-200.2,3.8C238.3,490.9,238.3,490.9,238.2,490.9z"/>
</g>
</g>
</g>
</g>
</g>
</g>
</g>
</g>
</g>
</g>
<g class="st0" id="colored_x5F_line">
<g class="st3">
<path class="st8" d="M851.3,291.1c-13.3-21.6-30.8-40.8-51.4-55.7c-9.4-6.8-22.8-10.6-31.3-17.8c-7.7-6.4-6.8-23.3-8.3-32.9    c-1-6.2-2.8-13.6-8.7-15.8c-5.1-1.9-10.7,1.1-15.2,4.3c-12.5,8.9-21.1,19.9-31.3,31c-7,7.7-17.4,7.5-26.9,11.3    c-23.1,9.2-43.5,26-54.8,48.4c-32.2,63.8-14.5,105.3-14.5,211.2l30,0L639,508l-405.8,4.5l-0.2-29.3l27.4-0.7    c-7.3-33.5-37.4-44.6-64.2-41.6c-32.6,3.7-46.3,20-61.2,35.9s-24.7,35.8-33.1,56c-3.2,7.7-6.3,15.7-12.3,21.4    c-6,5.7-15.9,8.4-22.7,3.7c-1.2,25.5,18.3,50.3,43.4,55.2s53.3-15.4,58.9-35.9c3.8-14.1,9.6-29.6,22.7-36.1    c13.6-6.7,27.3,3.8,35.6,16.5c28.3,42.9,11.2,96.7,3.3,143.4l24.9,12.1l43.8,11.4c10.8-44.9,21.2-101.8,49.7-120.2    c16.4-10.5,39.5-14.8,58.9-16.8c34.2-3.5,171.8-8.9,205.8,2.1c29.6,9.5,49.4,77.6,72,118l43.5-16.3l27.9-14.6    c-27.1-111.5-31.9-171.8-22.8-279.6c0.9-10.8,1.8-24.2,12.2-27c14.9-3.9,24.2,12.1,33.9,19.9c15.6,12.6,33.4,12.5,48,8.8    c15.6-3.9,29.1-15.4,35.5-30.1C875.3,343.7,865.5,314.4,851.3,291.1z M715,288.6c-8.5,1-17.2-5.7-18.4-14.2    c-3.1-21.9,31.1-25.8,33.1-3.8C730.5,279.1,723.5,287.6,715,288.6z"/>
</g>
<g class="st3">
<path class="st16" d="M804.9,247.2c-1.5,0-3.1-0.5-4.5-1.5c-3.3-2.5-4-7.2-1.6-10.5l2.7-3.6c3.8-5.1,7.7-10.4,11.3-15.6    c-15.1-9.5-34.4-17.5-54.4-22.5c-4-1-6.5-5.1-5.4-9.1c1-4,5.1-6.5,9.1-5.4c24.5,6.1,48.4,16.7,65.5,28.9c3.3,2.3,4.1,6.9,1.9,10.2    c-5,7.6-10.6,15.1-16,22.4l-2.7,3.6C809.4,246.2,807.2,247.2,804.9,247.2z"/>
</g>
<g class="st3">
<path class="st16" d="M713.4,296.8c-11.6,0-22.6-9.2-24.2-20.8c0,0,0,0,0,0c-1.3-8.8,1.9-16.8,8.6-21.9c7.2-5.4,17.6-6.7,25.9-3    c7.7,3.4,12.7,10.5,13.5,19.4c1.1,12.5-8.8,24.8-21.3,26.2C715,296.7,714.2,296.8,713.4,296.8z M704,273.9    c0.6,4.5,5.6,8.3,10.1,7.8c4.5-0.5,8.5-5.4,8.1-9.9c-0.3-3.4-1.9-5.8-4.6-7c-3.3-1.5-7.9-1-10.8,1.2    C704.5,267.8,703.5,270.5,704,273.9L704,273.9z"/>
</g>
<g class="st3">
<path class="st16" d="M477.9,788.9c-32.5,0-65.7-2.3-99.4-6.9C296,770.8,202.1,753,132.3,683c-2.6-2.6-2.9-6.6-0.9-9.6    c2.5-3.6,6.4-7.4,10.2-11.1c3.3-3.2,6.7-6.5,8.3-8.9c1.2-1.7,3-2.8,5.1-3.1c2-0.3,4.1,0.2,5.8,1.5    c74.6,58.8,193.5,89.7,326.3,84.7c127.9-4.7,247.8-42.5,320.8-101c1.6-1.2,3.5-1.8,5.5-1.6c2,0.2,3.8,1.2,5,2.8    c3.8,4.7,7.2,9.9,10.5,14.9c3.3,4.9,6.3,9.6,9.7,13.8c1.3,1.6,1.9,3.7,1.6,5.7c-0.3,2-1.4,3.9-3,5.1    C734.1,750.6,611.3,788.9,477.9,788.9z M147.8,677.2c66.1,62.7,154.6,79.4,232.7,90c165.1,22.5,317.7-11.7,441.6-98.8    c-2-2.8-3.9-5.7-5.8-8.6c-1.8-2.7-3.5-5.3-5.3-7.9c-75.9,57.7-196,94.8-323.5,99.5c-9.4,0.3-18.7,0.5-27.9,0.5    c-121.8,0-230.5-30.1-302.6-84.1c-1.6,1.7-3.4,3.4-5.1,5.1C150.6,674.4,149.2,675.9,147.8,677.2z"/>
</g>
<path class="st17" d="M728.1,173.3c-43.3-3.5-120.9,5.4-154.5,104.7c-15.2,44.9-12.5,136.6-9.1,191.9c-41.3,0.8-85.5,1.6-128.8,2.3   c-70.7,1.2-143.9,2.5-202.9,4c-2,0.1-4,0.9-5.3,2.4c-1.4,1.5-2.1,3.5-2,5.5c0.3,5.2,0.2,9.5,0.1,14c-0.1,4.7-0.2,9.5,0.1,15.2   c0.2,4,3.5,7.1,7.5,7.1c93.8,0,161.1-1.5,220.5-2.8c62.9-1.4,117.2-2.6,185.1-1.7c0,0,0.1,0,0.1,0c3.5,0,6.5-2.4,7.3-5.8   c2.3-9.9,1.5-17.8,0.6-27c-0.2-2.6-0.5-5.2-0.7-8.1c-0.3-4-3.7-7.1-7.7-7c-18.4,0.5-38.3,0.9-59,1.4c-2.8-46.1-6.6-142.9,8.3-186.8   c12.4-36.6,32.4-63,59.3-78.6c22.5-13,49.3-18.3,79.7-15.9c4.1,0.3,7.7-2.7,8.1-6.9C735.3,177.3,732.3,173.7,728.1,173.3z    M632,484.7c0.6,6.2,1.1,11.2,0.6,16.3c-65.2-0.8-118.2,0.4-179.2,1.8c-57.8,1.3-123.1,2.8-212.9,2.8c0-2.4,0-4.6,0.1-7   c0.1-2.4,0.1-4.9,0.1-7.5c57.6-1.5,127.6-2.7,195.3-3.8c67.9-1.2,138.1-2.4,195.9-3.9C631.9,483.8,632,484.3,632,484.7z"/>
</g>
</svg>