<?xml version="1.0" encoding="iso-8859-1"?>
<!-- Uploaded to: SVG Repo, www.svgrepo.com, Generator: SVG Repo Mixer Tools -->
<svg fill="#000000" height="800px" width="800px" version="1.1" id="Layer_1" xmlns="http://www.w3.org/2000/svg" xmlns:xlink="http://www.w3.org/1999/xlink" 
	 viewBox="0 0 512 512" xml:space="preserve">
<g>
	<g>
		<path d="M120.94,360.174h-15.084v19.968h15.084c5.459,0,8.188-5.027,8.188-9.912C129.129,365.201,126.399,360.174,120.94,360.174z
			"/>
	</g>
</g>
<g>
	<g>
		<path d="M120.222,397.38h-14.366v28.732h14.366c7.183,0,11.492-4.023,11.492-13.217
			C131.714,403.656,130.146,397.38,120.222,397.38z"/>
	</g>
</g>
<g>
	<g>
		<path d="M374.857,0H137.143c-10.099,0-18.286,8.187-18.286,18.286v219.429h274.286V18.286C393.143,8.187,384.956,0,374.857,0z
			 M297.733,158.119c0,8.051-19.332,13.29-21.692,5.027l-4.885-17.957h-30.312l-4.885,17.957
			c-2.355,8.243-21.692,3.038-21.692-5.027c0-0.997-1.124,3.045,27.007-89.211c3.133-9.969,26.168-9.988,29.306,0
			C298.84,161.081,297.733,157.112,297.733,158.119z"/>
	</g>
</g>
<g>
	<g>
		<polygon points="255.929,89.45 245.442,127.951 266.417,127.951 		"/>
	</g>
</g>
<g>
	<g>
		<path d="M274.286,274.286V512h219.429c10.099,0,18.286-8.187,18.286-18.286V274.286H274.286z M398.992,426.544
			c11.493,0,12.211-8.762,12.641-14.366c0.432-5.315,5.315-6.751,11.062-6.751c7.757,0,11.349,2.01,11.349,10.63
			c0,19.107-15.516,30.025-36.058,30.025c-18.82,0-34.477-9.194-34.477-33.904v-38.07c0-24.709,15.659-33.903,34.477-33.903
			c20.543,0,36.058,10.344,36.058,28.588c0,8.62-3.591,10.631-11.206,10.631c-6.033,0-10.918-1.58-11.204-6.752
			c-0.144-3.735-0.575-12.929-12.785-12.929c-8.188,0-12.928,4.597-12.928,14.365v38.07
			C385.919,421.947,390.66,426.544,398.992,426.544z"/>
	</g>
</g>
<g>
	<g>
		<path d="M0,274.286v219.429C0,503.813,8.187,512,18.286,512h219.429V274.286H0z M125.249,445.65h-31.89
			c-6.033,0-9.769-3.161-9.769-6.752v-91.365c0-4.597,4.885-6.896,9.769-6.896h29.45c14.365,0,28.73,5.172,28.73,25.571
			c0,11.636-4.597,19.25-12.211,22.555c8.763,3.304,14.797,8.619,14.797,22.984C154.124,432.68,146.837,445.65,125.249,445.65z"/>
	</g>
</g>
</svg>